<?xml version="1.0" encoding="utf-8"?>
<!-- Generator: Adobe Illustrator 25.4.1, SVG Export Plug-In . SVG Version: 6.00 Build 0)  -->
<svg version="1.1" id="Layer_1" xmlns="http://www.w3.org/2000/svg" xmlns:xlink="http://www.w3.org/1999/xlink" x="0px" y="0px"
	 viewBox="0 0 30 30" style="enable-background:new 0 0 30 30;" xml:space="preserve">
<style type="text/css">
	.st0{fill:#026649;}
</style>
<g>
	<path class="st0" d="M19.4,19.6c0,0.8-0.1,1.5-0.3,2.2c-0.3,1.2-0.8,2.2-1.5,3.2c-0.8,1.1-1.6,2.1-2.4,3.2
		c-0.2,0.2-0.3,0.4-0.6,0.4c-0.5,0-0.9-0.4-0.8-0.7c0-0.1,0-0.3,0.1-0.4c0.2-0.7,0.4-1.4,0.5-2.1c0.1-0.5,0.2-0.9,0.3-1.4
		c0.1-0.2,0.1-0.5,0.1-0.7c0.1-0.8,0-1.6-0.2-2.4c-0.3-1.3-1-2.4-1.9-3.4c-1-1-1.7-2.1-2.1-3.4c-0.2-0.5-0.3-1.1-0.4-1.6
		c-0.1-0.8-0.1-1.5,0-2.3c0.2-1.6,0.8-3,1.7-4.3c0.8-1.1,1.7-2.3,2.5-3.4c0.1-0.2,0.3-0.3,0.5-0.4c0.5-0.1,1,0.4,0.9,0.9
		c-0.1,0.3-0.2,0.6-0.2,1c-0.2,0.7-0.3,1.4-0.5,2.1c-0.3,1-0.4,2.1-0.3,3.2c0.1,0.7,0.3,1.5,0.6,2.1c0.4,0.9,0.9,1.6,1.6,2.3
		c0.8,0.8,1.3,1.6,1.8,2.6c0.3,0.6,0.5,1.2,0.6,1.8C19.4,18.5,19.5,19.1,19.4,19.6z"/>
	<path class="st0" d="M26,16.1c0,1.7-0.5,3.2-1.4,4.6c-0.4,0.6-0.8,1.2-1.3,1.8c-0.2,0.3-0.5,0.4-0.8,0.4c-0.4-0.1-0.7-0.5-0.6-0.9
		c0.1-0.7,0.2-1.3,0.3-2c0.1-0.4,0-0.8,0-1.2c0-0.4-0.1-0.8-0.2-1.2c-0.2-0.7-0.5-1.4-0.9-2.1c-0.3-0.4-0.6-0.7-0.9-1.1
		c-0.9-0.9-1.6-2-1.9-3.3C18.1,10.2,18,9.4,18,8.5c0-0.6,0.1-1.1,0.2-1.7c0.2-0.9,0.6-1.8,1.2-2.6c0.5-0.7,0.9-1.3,1.4-2
		c0.1-0.2,0.2-0.3,0.4-0.3c0.4-0.1,0.9,0.1,1,0.6c0,0.2,0,0.4,0,0.6c-0.1,0.5-0.2,1-0.3,1.4c-0.1,0.7-0.2,1.3-0.1,2
		c0.1,1.5,0.7,2.8,1.7,3.9c0.6,0.6,1.1,1.2,1.5,2c0.4,0.7,0.7,1.5,0.8,2.4C25.9,15.2,25.9,15.6,26,16.1z"/>
	<path class="st0" d="M7,7.6c0.5,0,0.9,0.4,0.8,0.9c-0.1,0.7-0.2,1.3-0.3,2c-0.1,0.6-0.1,1.3-0.1,1.9c0,0.6,0.2,1.2,0.5,1.8
		c0.4,0.9,0.9,1.6,1.6,2.3c0.8,0.8,1.4,1.8,1.7,3c0.2,0.7,0.3,1.3,0.4,2c0,0.6,0,1.2-0.1,1.8c-0.2,1.3-0.8,2.5-1.6,3.5
		c-0.3,0.4-0.6,0.9-1,1.3c-0.1,0.2-0.3,0.3-0.5,0.4c-0.3,0.1-0.7-0.1-0.8-0.3c-0.1-0.2-0.2-0.4-0.1-0.6c0.1-0.6,0.2-1.1,0.3-1.7
		c0.1-0.7,0.1-1.4,0.1-2C7.7,23,7.4,22.2,7,21.5c-0.3-0.6-0.8-1.1-1.3-1.6c-0.7-0.7-1.2-1.6-1.6-2.5c-0.3-0.7-0.4-1.4-0.5-2.1
		c-0.1-0.7-0.1-1.4,0.1-2.1C3.8,12.6,4,12,4.2,11.4c0.2-0.6,0.5-1.1,0.9-1.6C5.6,9.2,6,8.6,6.4,8c0.1-0.2,0.3-0.3,0.5-0.4
		C6.9,7.6,7,7.6,7,7.6z"/>
</g>
</svg>
