<?xml version="1.0" encoding="utf-8"?>
<!-- Generator: Adobe Illustrator 25.4.1, SVG Export Plug-In . SVG Version: 6.00 Build 0)  -->
<svg version="1.1" id="Layer_1" xmlns="http://www.w3.org/2000/svg" xmlns:xlink="http://www.w3.org/1999/xlink" x="0px" y="0px"
	 viewBox="0 0 30 30" style="enable-background:new 0 0 30 30;" xml:space="preserve">
<style type="text/css">
	.st0{fill:#026649;}
</style>
<g>
	<path class="st0" d="M4.7,12.4c1.2,0.5,2.4,0.5,3.6,0c2.2-0.9,3.6-3.6,2.3-6.1c-0.1-0.3-0.3-0.5-0.4-0.8c-0.2-0.2-0.2-0.4,0.1-0.6
		c1.2-1,2.3-2,3.4-3c0.7-0.6,1.8-0.6,2.6,0c3.1,2.5,6,5.3,8.1,8.8c1,1.7,1.8,3.5,2,5.4c0.2,1.7,0,3.3-0.6,5
		c-0.2-0.2-0.5-0.5-0.7-0.7c-0.9-0.9-2.3-1-3.2-0.1c-1.2,1.1-2.2,2.5-2.8,4.1c-0.4,1.2-0.3,2.3,0.3,3.5c-3,1.5-8.3,1.4-12.1-2.1
		C3.6,22.2,2.5,16.7,4.7,12.4z M11.1,19.1c0.6,0,1.1,0,1.6-0.1c1.4-0.4,2.1-1.8,1.7-3.1c-0.4-1.4-1.8-2.1-3.2-1.7
		c-0.1,0-0.3,0.1-0.4,0c-0.7-0.4-1.3,0.1-1.3,0.8c0,1.9,0,3.8,0,5.8c0,0.6,0.3,0.9,0.8,0.9c0.5,0,0.8-0.3,0.8-0.9
		C11.1,20.2,11.1,19.6,11.1,19.1z M17.1,14.1c0-0.5,0-1.1,0-1.7c0-0.5-0.3-0.8-0.8-0.8c-0.5,0-0.8,0.3-0.8,0.8c0,2,0,3.9,0,5.9
		c0,0.5,0.3,0.8,0.8,0.8c0.5,0,0.8-0.3,0.8-0.8c0-0.5,0-1.1,0-1.6c0-0.6,0.4-1,0.9-1c0.5,0,0.9,0.4,0.9,1c0,0.5,0,1,0,1.5
		c0,0.5,0.3,0.8,0.8,0.8c0.5,0,0.8-0.3,0.8-0.8c0-0.6,0-1.2,0-1.7c0-1-0.7-2-1.6-2.3C18.4,14.2,17.8,14.2,17.1,14.1z"/>
	<path class="st0" d="M20.4,25.5c0.1-0.4,0.2-0.9,0.5-1.3c0.6-0.9,1.3-1.8,2-2.7c0.3-0.4,0.8-0.4,1.2,0c0.9,0.9,1.6,1.9,2.1,3
		c0.8,1.7-0.3,3.4-1.6,3.9c-1.6,0.6-3.3-0.2-3.9-1.8C20.6,26.3,20.5,25.9,20.4,25.5z"/>
	<path class="st0" d="M3.5,8.1c0.1-0.4,0.2-0.8,0.4-1.2c0.5-1.1,1.2-2,2-2.8c0.3-0.4,0.8-0.4,1.1,0c0.9,0.9,1.6,1.9,2.2,3
		C10,8.7,9.1,10.4,7.6,11C6,11.5,4.2,10.7,3.7,9.1C3.6,8.8,3.6,8.5,3.5,8.1z"/>
	<path class="st0" d="M12.1,15.7c0.5,0,0.9,0.5,0.9,1c0,0.5-0.5,0.9-0.9,0.9c-0.5,0-0.9-0.5-0.9-1C11.2,16.1,11.6,15.7,12.1,15.7z"
		/>
</g>
</svg>
