<?xml version="1.0" encoding="utf-8"?>
<!-- Generator: Adobe Illustrator 25.4.1, SVG Export Plug-In . SVG Version: 6.00 Build 0)  -->
<svg version="1.1" id="Layer_1" xmlns="http://www.w3.org/2000/svg" xmlns:xlink="http://www.w3.org/1999/xlink" x="0px" y="0px"
	 viewBox="0 0 30 30" style="enable-background:new 0 0 30 30;" xml:space="preserve">
<style type="text/css">
	.st0{fill:#026649;}
</style>
<g>
	<g>
		<g>
			<path class="st0" d="M9.4,8.8c3.3-0.8,8.2-0.8,10.8,0c0,0.5,0,1,0,1.6c-0.1,1.9-0.1,3.8-0.2,5.7c-0.1,2.5-1.9,4.6-4.4,5
				c-2.5,0.4-4.8-1-5.7-3.3c-0.2-0.4-0.3-0.9-0.3-1.4C9.5,13.9,9.5,11.5,9.4,9C9.4,9,9.4,8.9,9.4,8.8z"/>
		</g>
		<g>
			<path class="st0" d="M8.7,15.3c-2-0.6-3.9-1.4-5.3-3.1c-1.4-1.8-1.1-4,0.6-5.6c1.4-1.2,3-1.9,4.7-2.4c4.2-1.1,8.4-1.1,12.5,0.1
				c1.6,0.5,3.1,1.2,4.3,2.4c0.9,0.9,1.5,1.9,1.4,3.2c0,0.9-0.4,1.7-1,2.3c-1.1,1.4-2.7,2.1-4.3,2.7c-0.3,0.1-0.5,0.2-0.8,0.3
				c0-0.2,0-0.3,0-0.4c0.1-1.9,0.1-3.8,0.2-5.7c0-0.8-0.1-1-0.9-1.1c-2.8-0.7-5.7-0.8-8.6-0.4C10.9,7.7,10.1,7.8,9.3,8
				C8.7,8.1,8.5,8.4,8.5,9c0.1,1.9,0.1,3.9,0.2,5.8C8.7,14.9,8.7,15.1,8.7,15.3z"/>
		</g>
		<g>
			<path class="st0" d="M8.8,29.9c0-1.9,0-3.7,0-5.5c4,3.7,8,3.8,12.1,0c0,1.8,0,3.7,0,5.5C16.8,29.9,12.8,29.9,8.8,29.9z"/>
		</g>
		<g>
			<path class="st0" d="M18.7,21.1c0.3,0.8,0.6,1.5,0.8,2.3c0,0.1,0,0.4-0.1,0.5c-1.1,1.2-2.3,2.1-4,2.3c-1.7,0.1-3.1-0.4-4.4-1.5
				c-0.8-0.7-1-1.3-0.5-2.2c0.2-0.4,0.3-0.8,0.5-1.3C13.6,22.5,16.1,22.5,18.7,21.1z"/>
		</g>
		<g>
			<path class="st0" d="M7.9,23.5c0,2.1,0,4.2,0,6.4c-0.1,0-0.3,0-0.4,0c-1.3,0-2.6,0-3.9,0c-0.8,0-1.3-0.5-1.1-1.3
				c0.2-0.8,0.3-1.6,0.6-2.4C3.6,24.6,5.2,23.1,7.9,23.5z"/>
		</g>
		<g>
			<path class="st0" d="M21.9,23.5c2.5-0.3,4.3,0.9,4.9,3.2c0.1,0.6,0.3,1.2,0.4,1.7c0.2,0.9-0.2,1.4-1.1,1.4c-1.3,0-2.7,0-4,0
				c-0.1,0-0.1,0-0.2,0C21.9,27.8,21.9,25.7,21.9,23.5z"/>
		</g>
		<g>
			<path class="st0" d="M10.5,2.9c0.1-1.3,1.2-2.4,2.5-2.4c1.2,0,2.5,0,3.7,0c1.3,0,2.4,1.1,2.5,2.4C16.3,2.5,13.4,2.5,10.5,2.9z"/>
		</g>
	</g>
</g>
</svg>
