<?xml version="1.0" encoding="utf-8"?>
<!-- Generator: Adobe Illustrator 25.4.1, SVG Export Plug-In . SVG Version: 6.00 Build 0)  -->
<svg version="1.1" id="Layer_1" xmlns="http://www.w3.org/2000/svg" xmlns:xlink="http://www.w3.org/1999/xlink" x="0px" y="0px"
	 viewBox="0 0 30 30" style="enable-background:new 0 0 30 30;" xml:space="preserve">
<style type="text/css">
	.st0{fill:#026649;}
</style>
<g>
	<g>
		<path class="st0" d="M27.2,10.3c0,1.3-0.2,2.4-0.5,3.4c-0.4,1.6-1.2,3.1-2,4.6c-1,1.6-2.2,3.1-3.7,4.4c-1.4,1.3-3,2.4-4.8,3.3
			c-0.9,0.4-1.8,0.8-2.8,1.1c-0.7,0.2-1.3,0.3-2,0.4c-0.9,0.1-1.8,0.1-2.7,0c-0.5-0.1-0.9-0.3-1.1-0.8c-0.2-0.5-0.1-1,0.2-1.3
			C7.9,25.2,8,25.1,8.2,25c2.1-1.5,3.8-3.3,5.3-5.4c0.7-1.1,1.4-2.3,1.9-3.6c0.6-1.5,1.4-2.9,2.4-4.2C19.2,9.9,20.9,8.3,23,7
			c0.5-0.3,1.1-0.6,1.6-0.9c0.6-0.4,1.4-0.1,1.7,0.5c0.3,0.6,0.5,1.3,0.7,1.9C27.1,9.2,27.1,9.9,27.2,10.3z"/>
		<path class="st0" d="M2.4,19.8c0-0.6,0.1-1.3,0.2-1.9C2.9,16.4,3.4,15,4,13.6c0.9-1.8,2.1-3.5,3.5-4.9c1.4-1.5,3-2.8,4.8-3.8
			c1.1-0.6,2.3-1.1,3.5-1.5c0.6-0.2,1.3-0.3,1.9-0.4c0.9-0.1,1.7-0.2,2.6-0.1c0.3,0,0.6,0.1,1,0.1c0.5,0.1,0.9,0.4,1,1
			c0.1,0.5-0.1,1-0.5,1.3c-0.6,0.4-1.3,0.9-1.8,1.3c-1.1,0.8-2,1.8-2.9,2.8c-1,1.1-1.8,2.3-2.5,3.6c-0.5,0.8-0.9,1.7-1.2,2.6
			c-1.2,2.8-3,5.1-5.3,7c-0.9,0.7-1.8,1.3-2.8,1.9c-0.6,0.3-1.3,0.1-1.7-0.5c-0.3-0.5-0.5-1-0.6-1.5C2.5,21.6,2.4,20.7,2.4,19.8z"/>
	</g>
</g>
</svg>
