<?xml version="1.0" encoding="utf-8"?>
<!-- Generator: Adobe Illustrator 25.4.1, SVG Export Plug-In . SVG Version: 6.00 Build 0)  -->
<svg version="1.1" id="Layer_1" xmlns="http://www.w3.org/2000/svg" xmlns:xlink="http://www.w3.org/1999/xlink" x="0px" y="0px"
	 viewBox="0 0 30 30" style="enable-background:new 0 0 30 30;" xml:space="preserve">
<style type="text/css">
	.st0{fill:#026649;}
</style>
<g>
	<path class="st0" d="M13.5,9.9c-3.6,0-7.2,0-10.9,0c-0.3,0-0.5-0.1-0.5-0.4c0-0.3-0.1-0.7-0.1-1C1.9,7.7,2.3,7.1,3,7
		c0.1,0,0.3,0,0.4,0c6.7,0,13.4,0,20.1,0c0.8,0,1.3,0.3,1.4,0.9c0.1,0.6-0.1,1.2-0.1,1.9c0,0.1-0.2,0.1-0.4,0.1c-1,0-2.1,0-3.1,0
		C18.7,9.9,16.1,9.9,13.5,9.9z"/>
	<path class="st0" d="M1.9,21.1c7.8,0,15.5,0,23.3,0c-0.4,0.7-0.7,1.4-1.1,2c-0.1,0.2-0.6,0.3-0.9,0.3c-6.5,0-12.9,0-19.4,0
		c-0.3,0-0.8-0.2-0.9-0.4C2.5,22.5,2.2,21.8,1.9,21.1z"/>
	<path class="st0" d="M24.2,18.6c0.2-0.5,0.4-1,0.7-1.4c0.1-0.1,0.2-0.2,0.4-0.3c2.1-1.4,3.1-3.3,2.8-5.8c-0.1-0.9-0.6-1.4-1.5-1.5
		c-0.1,0-0.3,0-0.5-0.1c0-0.4,0.1-0.7,0.1-1.1c1.4-0.1,2.8,0.7,3.1,2.7c0.4,3.1-1.8,6.5-4.8,7.4C24.4,18.5,24.3,18.6,24.2,18.6z"/>
	<path class="st0" d="M2.3,11c0.1,1.1,0.2,2.2,0.4,3.3c0.2,1.2,0.5,2.3,1,3.3c0.5,0.9,1.1,2,2.1,2.2C6.1,20,6.4,20,6.7,20
		c0.7,0,1.3,0,2,0c1.5,0,3,0,4.5,0c1.6,0,3.2,0,4.8,0c1.1,0,2.3-0.1,3.4-0.4c0.7-0.2,1.3-0.7,1.7-1.3c0.4-0.6,0.7-1.2,0.9-1.9
		c0.2-0.7,0.4-1.3,0.5-2c0.1-1.1,0.2-2.2,0.4-3.3C17.2,11,9.8,11,2.3,11z"/>
</g>
</svg>
