<svg id="Layer_1" data-name="Layer 1" xmlns="http://www.w3.org/2000/svg" viewBox="0 0 33.19 33.17"><defs><style>.cls-1{fill:#53b153;}</style></defs><path class="cls-1" d="M2.42,34.29c.09-.28.18-.52.26-.77.26-.78.53-1.56.79-2.35l.88-2.62s0-.09,0-.12a.46.46,0,0,0-.07-.53,16.07,16.07,0,0,1-2.15-4.23c-.19-.59-.33-1.19-.47-1.8A14.85,14.85,0,0,1,1.33,19a16.25,16.25,0,0,1,.09-2.52c.06-.55.2-1.09.31-1.63a14.73,14.73,0,0,1,.93-2.91A17.24,17.24,0,0,1,4.39,8.84a16.74,16.74,0,0,1,5.69-5,16.71,16.71,0,0,1,6.69-1.93A19.13,19.13,0,0,1,19.89,2c.51,0,1,.18,1.52.28a15.6,15.6,0,0,1,2.89.9,16.9,16.9,0,0,1,6.8,5.27A16,16,0,0,1,33,11.49a14.63,14.63,0,0,1,1.06,3,15.7,15.7,0,0,1,.37,1.91A15.92,15.92,0,0,1,34.49,19c0,.56-.07,1.13-.15,1.69a16.22,16.22,0,0,1-1.16,4.19,16.58,16.58,0,0,1-1.6,2.92,16.85,16.85,0,0,1-3.06,3.36,16.5,16.5,0,0,1-3.87,2.41,15.32,15.32,0,0,1-2.93,1,17.09,17.09,0,0,1-1.87.35,14.54,14.54,0,0,1-2.38.1c-.43,0-.86,0-1.28-.09-.61-.08-1.22-.18-1.82-.3a16,16,0,0,1-4.58-1.74c-.29-.16-.57-.34-.85-.52a.31.31,0,0,0-.29,0L7.1,32.8l-2.94.94-1.33.43ZM8.29,13.77a5,5,0,0,0,.24,2,9.22,9.22,0,0,0,1.14,2.47,28.78,28.78,0,0,0,2.73,3.59,20.94,20.94,0,0,0,3.08,2.8A14.58,14.58,0,0,0,17.68,26a19,19,0,0,0,2.65,1.06c.55.18,1.1.34,1.66.49a5,5,0,0,0,2.08.11,5.36,5.36,0,0,0,2.45-1.08,3,3,0,0,0,1.09-1.42,5.93,5.93,0,0,0,.3-1.82.65.65,0,0,0-.42-.67c-1.28-.61-2.55-1.24-3.83-1.82a.88.88,0,0,0-1.15.24,5.12,5.12,0,0,0-.34.44c-.31.41-.61.82-.93,1.22a1,1,0,0,1-1.24.34A12.29,12.29,0,0,1,14.54,19c-.4-.52-.77-1.07-1.13-1.62a.67.67,0,0,1,.05-.9c.14-.18.31-.35.47-.53s.49-.57.72-.87a1.11,1.11,0,0,0,.12-1.22c-.44-1-.87-2.11-1.31-3.15-.13-.31-.28-.61-.43-.9a.56.56,0,0,0-.43-.31,4.32,4.32,0,0,0-1.48,0,2,2,0,0,0-.92.35A4.92,4.92,0,0,0,8.62,12,4.69,4.69,0,0,0,8.29,13.77Z" transform="translate(-1.31 -1.85)"/></svg>